<mxfile host="app.diagrams.net" agent="Mozilla/5.0 (X11; Linux x86_64) AppleWebKit/537.36 (KHTML, like Gecko) Chrome/134.0.0.0 Safari/537.36" version="25.0.1">
  <diagram name="Page-1" id="2YBvvXClWsGukQMizWep">
    <mxGraphModel dx="1372" dy="718" grid="1" gridSize="10" guides="1" tooltips="1" connect="1" arrows="1" fold="1" page="1" pageScale="1" pageWidth="850" pageHeight="1100" math="0" shadow="0">
      <root>
        <mxCell id="0" />
        <mxCell id="1" parent="0" />
        <mxCell id="aM9ryv3xv72pqoxQDRHE-1" value="&lt;div&gt;POST /api/job-posts&lt;/div&gt;" style="shape=umlLifeline;perimeter=lifelinePerimeter;whiteSpace=wrap;html=1;container=0;dropTarget=0;collapsible=0;recursiveResize=0;outlineConnect=0;portConstraint=eastwest;newEdgeStyle={&quot;edgeStyle&quot;:&quot;elbowEdgeStyle&quot;,&quot;elbow&quot;:&quot;vertical&quot;,&quot;curved&quot;:0,&quot;rounded&quot;:0};" parent="1" vertex="1">
          <mxGeometry x="40" y="40" width="120" height="260" as="geometry" />
        </mxCell>
        <mxCell id="aM9ryv3xv72pqoxQDRHE-5" value="JobPostController" style="shape=umlLifeline;perimeter=lifelinePerimeter;whiteSpace=wrap;html=1;container=0;dropTarget=0;collapsible=0;recursiveResize=0;outlineConnect=0;portConstraint=eastwest;newEdgeStyle={&quot;edgeStyle&quot;:&quot;elbowEdgeStyle&quot;,&quot;elbow&quot;:&quot;vertical&quot;,&quot;curved&quot;:0,&quot;rounded&quot;:0};" parent="1" vertex="1">
          <mxGeometry x="240" y="40" width="110" height="270" as="geometry" />
        </mxCell>
        <mxCell id="aM9ryv3xv72pqoxQDRHE-6" value="" style="html=1;points=[];perimeter=orthogonalPerimeter;outlineConnect=0;targetShapes=umlLifeline;portConstraint=eastwest;newEdgeStyle={&quot;edgeStyle&quot;:&quot;elbowEdgeStyle&quot;,&quot;elbow&quot;:&quot;vertical&quot;,&quot;curved&quot;:0,&quot;rounded&quot;:0};" parent="aM9ryv3xv72pqoxQDRHE-5" vertex="1">
          <mxGeometry x="45" y="80" width="10" height="170" as="geometry" />
        </mxCell>
        <mxCell id="KMCO-tWbzsmPumvapd43-1" value="JobPostService" style="shape=umlLifeline;perimeter=lifelinePerimeter;whiteSpace=wrap;html=1;container=0;dropTarget=0;collapsible=0;recursiveResize=0;outlineConnect=0;portConstraint=eastwest;newEdgeStyle={&quot;edgeStyle&quot;:&quot;elbowEdgeStyle&quot;,&quot;elbow&quot;:&quot;vertical&quot;,&quot;curved&quot;:0,&quot;rounded&quot;:0};" vertex="1" parent="1">
          <mxGeometry x="410" y="40" width="110" height="260" as="geometry" />
        </mxCell>
        <mxCell id="KMCO-tWbzsmPumvapd43-2" value="" style="html=1;points=[];perimeter=orthogonalPerimeter;outlineConnect=0;targetShapes=umlLifeline;portConstraint=eastwest;newEdgeStyle={&quot;edgeStyle&quot;:&quot;elbowEdgeStyle&quot;,&quot;elbow&quot;:&quot;vertical&quot;,&quot;curved&quot;:0,&quot;rounded&quot;:0};" vertex="1" parent="KMCO-tWbzsmPumvapd43-1">
          <mxGeometry x="45" y="80" width="10" height="170" as="geometry" />
        </mxCell>
        <mxCell id="KMCO-tWbzsmPumvapd43-3" value="Mysql" style="shape=umlLifeline;perimeter=lifelinePerimeter;whiteSpace=wrap;html=1;container=0;dropTarget=0;collapsible=0;recursiveResize=0;outlineConnect=0;portConstraint=eastwest;newEdgeStyle={&quot;edgeStyle&quot;:&quot;elbowEdgeStyle&quot;,&quot;elbow&quot;:&quot;vertical&quot;,&quot;curved&quot;:0,&quot;rounded&quot;:0};" vertex="1" parent="1">
          <mxGeometry x="580" y="40" width="110" height="260" as="geometry" />
        </mxCell>
        <mxCell id="KMCO-tWbzsmPumvapd43-4" value="" style="html=1;points=[];perimeter=orthogonalPerimeter;outlineConnect=0;targetShapes=umlLifeline;portConstraint=eastwest;newEdgeStyle={&quot;edgeStyle&quot;:&quot;elbowEdgeStyle&quot;,&quot;elbow&quot;:&quot;vertical&quot;,&quot;curved&quot;:0,&quot;rounded&quot;:0};" vertex="1" parent="KMCO-tWbzsmPumvapd43-3">
          <mxGeometry x="45" y="80" width="10" height="170" as="geometry" />
        </mxCell>
        <mxCell id="KMCO-tWbzsmPumvapd43-5" value="JobPostEvent producer" style="shape=umlLifeline;perimeter=lifelinePerimeter;whiteSpace=wrap;html=1;container=0;dropTarget=0;collapsible=0;recursiveResize=0;outlineConnect=0;portConstraint=eastwest;newEdgeStyle={&quot;edgeStyle&quot;:&quot;elbowEdgeStyle&quot;,&quot;elbow&quot;:&quot;vertical&quot;,&quot;curved&quot;:0,&quot;rounded&quot;:0};" vertex="1" parent="1">
          <mxGeometry x="730" y="40" width="110" height="260" as="geometry" />
        </mxCell>
        <mxCell id="KMCO-tWbzsmPumvapd43-6" value="" style="html=1;points=[];perimeter=orthogonalPerimeter;outlineConnect=0;targetShapes=umlLifeline;portConstraint=eastwest;newEdgeStyle={&quot;edgeStyle&quot;:&quot;elbowEdgeStyle&quot;,&quot;elbow&quot;:&quot;vertical&quot;,&quot;curved&quot;:0,&quot;rounded&quot;:0};" vertex="1" parent="KMCO-tWbzsmPumvapd43-5">
          <mxGeometry x="45" y="80" width="10" height="170" as="geometry" />
        </mxCell>
        <mxCell id="KMCO-tWbzsmPumvapd43-8" value="Insert to db" style="html=1;verticalAlign=bottom;endArrow=block;edgeStyle=elbowEdgeStyle;elbow=vertical;curved=0;rounded=0;" edge="1" parent="1" source="KMCO-tWbzsmPumvapd43-2" target="KMCO-tWbzsmPumvapd43-4">
          <mxGeometry relative="1" as="geometry">
            <mxPoint x="470" y="130" as="sourcePoint" />
            <Array as="points">
              <mxPoint x="560" y="170" />
              <mxPoint x="555" y="130" />
            </Array>
            <mxPoint x="620" y="130" as="targetPoint" />
          </mxGeometry>
        </mxCell>
        <mxCell id="KMCO-tWbzsmPumvapd43-12" value="JobPostEvent consumer" style="shape=umlLifeline;perimeter=lifelinePerimeter;whiteSpace=wrap;html=1;container=0;dropTarget=0;collapsible=0;recursiveResize=0;outlineConnect=0;portConstraint=eastwest;newEdgeStyle={&quot;edgeStyle&quot;:&quot;elbowEdgeStyle&quot;,&quot;elbow&quot;:&quot;vertical&quot;,&quot;curved&quot;:0,&quot;rounded&quot;:0};" vertex="1" parent="1">
          <mxGeometry x="919" y="40" width="110" height="260" as="geometry" />
        </mxCell>
        <mxCell id="KMCO-tWbzsmPumvapd43-13" value="" style="html=1;points=[];perimeter=orthogonalPerimeter;outlineConnect=0;targetShapes=umlLifeline;portConstraint=eastwest;newEdgeStyle={&quot;edgeStyle&quot;:&quot;elbowEdgeStyle&quot;,&quot;elbow&quot;:&quot;vertical&quot;,&quot;curved&quot;:0,&quot;rounded&quot;:0};" vertex="1" parent="KMCO-tWbzsmPumvapd43-12">
          <mxGeometry x="45" y="80" width="10" height="170" as="geometry" />
        </mxCell>
        <mxCell id="KMCO-tWbzsmPumvapd43-14" value="&lt;div&gt;POST /rpc/job-posts&lt;/div&gt;" style="shape=umlLifeline;perimeter=lifelinePerimeter;whiteSpace=wrap;html=1;container=0;dropTarget=0;collapsible=0;recursiveResize=0;outlineConnect=0;portConstraint=eastwest;newEdgeStyle={&quot;edgeStyle&quot;:&quot;elbowEdgeStyle&quot;,&quot;elbow&quot;:&quot;vertical&quot;,&quot;curved&quot;:0,&quot;rounded&quot;:0};" vertex="1" parent="1">
          <mxGeometry x="1139" y="40" width="110" height="260" as="geometry" />
        </mxCell>
        <mxCell id="KMCO-tWbzsmPumvapd43-15" value="" style="html=1;points=[];perimeter=orthogonalPerimeter;outlineConnect=0;targetShapes=umlLifeline;portConstraint=eastwest;newEdgeStyle={&quot;edgeStyle&quot;:&quot;elbowEdgeStyle&quot;,&quot;elbow&quot;:&quot;vertical&quot;,&quot;curved&quot;:0,&quot;rounded&quot;:0};" vertex="1" parent="KMCO-tWbzsmPumvapd43-14">
          <mxGeometry x="45" y="80" width="10" height="170" as="geometry" />
        </mxCell>
        <mxCell id="KMCO-tWbzsmPumvapd43-16" value="Http&amp;nbsp;" style="html=1;verticalAlign=bottom;endArrow=block;edgeStyle=elbowEdgeStyle;elbow=vertical;curved=0;rounded=0;" edge="1" parent="1" target="KMCO-tWbzsmPumvapd43-15">
          <mxGeometry relative="1" as="geometry">
            <mxPoint x="979" y="130" as="sourcePoint" />
            <Array as="points">
              <mxPoint x="1064" y="130" />
            </Array>
            <mxPoint x="1109" y="130" as="targetPoint" />
          </mxGeometry>
        </mxCell>
        <mxCell id="KMCO-tWbzsmPumvapd43-17" value="&lt;div&gt;JobPostService&lt;/div&gt;" style="shape=umlLifeline;perimeter=lifelinePerimeter;whiteSpace=wrap;html=1;container=0;dropTarget=0;collapsible=0;recursiveResize=0;outlineConnect=0;portConstraint=eastwest;newEdgeStyle={&quot;edgeStyle&quot;:&quot;elbowEdgeStyle&quot;,&quot;elbow&quot;:&quot;vertical&quot;,&quot;curved&quot;:0,&quot;rounded&quot;:0};" vertex="1" parent="1">
          <mxGeometry x="1289" y="40" width="110" height="260" as="geometry" />
        </mxCell>
        <mxCell id="KMCO-tWbzsmPumvapd43-18" value="" style="html=1;points=[];perimeter=orthogonalPerimeter;outlineConnect=0;targetShapes=umlLifeline;portConstraint=eastwest;newEdgeStyle={&quot;edgeStyle&quot;:&quot;elbowEdgeStyle&quot;,&quot;elbow&quot;:&quot;vertical&quot;,&quot;curved&quot;:0,&quot;rounded&quot;:0};" vertex="1" parent="KMCO-tWbzsmPumvapd43-17">
          <mxGeometry x="45" y="80" width="10" height="170" as="geometry" />
        </mxCell>
        <mxCell id="KMCO-tWbzsmPumvapd43-19" value="&lt;div&gt;&lt;font style=&quot;font-size: 10px;&quot;&gt;ElasticGatewayService&lt;/font&gt;&lt;/div&gt;" style="shape=umlLifeline;perimeter=lifelinePerimeter;whiteSpace=wrap;html=1;container=0;dropTarget=0;collapsible=0;recursiveResize=0;outlineConnect=0;portConstraint=eastwest;newEdgeStyle={&quot;edgeStyle&quot;:&quot;elbowEdgeStyle&quot;,&quot;elbow&quot;:&quot;vertical&quot;,&quot;curved&quot;:0,&quot;rounded&quot;:0};" vertex="1" parent="1">
          <mxGeometry x="1424" y="40" width="110" height="260" as="geometry" />
        </mxCell>
        <mxCell id="KMCO-tWbzsmPumvapd43-20" value="" style="html=1;points=[];perimeter=orthogonalPerimeter;outlineConnect=0;targetShapes=umlLifeline;portConstraint=eastwest;newEdgeStyle={&quot;edgeStyle&quot;:&quot;elbowEdgeStyle&quot;,&quot;elbow&quot;:&quot;vertical&quot;,&quot;curved&quot;:0,&quot;rounded&quot;:0};" vertex="1" parent="KMCO-tWbzsmPumvapd43-19">
          <mxGeometry x="45" y="80" width="10" height="170" as="geometry" />
        </mxCell>
        <mxCell id="KMCO-tWbzsmPumvapd43-21" value="Forward after validations" style="html=1;verticalAlign=bottom;endArrow=block;edgeStyle=elbowEdgeStyle;elbow=vertical;curved=0;rounded=0;" edge="1" parent="1" source="KMCO-tWbzsmPumvapd43-14" target="KMCO-tWbzsmPumvapd43-18">
          <mxGeometry x="-0.0033" relative="1" as="geometry">
            <mxPoint x="1199" y="140" as="sourcePoint" />
            <Array as="points">
              <mxPoint x="1284" y="140" />
            </Array>
            <mxPoint x="1329" y="140" as="targetPoint" />
            <mxPoint as="offset" />
          </mxGeometry>
        </mxCell>
        <mxCell id="KMCO-tWbzsmPumvapd43-22" value="Forward (just onion)" style="html=1;verticalAlign=bottom;endArrow=block;edgeStyle=elbowEdgeStyle;elbow=vertical;curved=0;rounded=0;" edge="1" parent="1" source="KMCO-tWbzsmPumvapd43-17">
          <mxGeometry x="-0.0033" relative="1" as="geometry">
            <mxPoint x="1359" y="170" as="sourcePoint" />
            <Array as="points">
              <mxPoint x="1339" y="170" />
            </Array>
            <mxPoint x="1469" y="170" as="targetPoint" />
            <mxPoint as="offset" />
          </mxGeometry>
        </mxCell>
        <mxCell id="KMCO-tWbzsmPumvapd43-23" value="Elastic" style="shape=umlLifeline;perimeter=lifelinePerimeter;whiteSpace=wrap;html=1;container=0;dropTarget=0;collapsible=0;recursiveResize=0;outlineConnect=0;portConstraint=eastwest;newEdgeStyle={&quot;edgeStyle&quot;:&quot;elbowEdgeStyle&quot;,&quot;elbow&quot;:&quot;vertical&quot;,&quot;curved&quot;:0,&quot;rounded&quot;:0};" vertex="1" parent="1">
          <mxGeometry x="1559" y="40" width="110" height="260" as="geometry" />
        </mxCell>
        <mxCell id="KMCO-tWbzsmPumvapd43-24" value="" style="html=1;points=[];perimeter=orthogonalPerimeter;outlineConnect=0;targetShapes=umlLifeline;portConstraint=eastwest;newEdgeStyle={&quot;edgeStyle&quot;:&quot;elbowEdgeStyle&quot;,&quot;elbow&quot;:&quot;vertical&quot;,&quot;curved&quot;:0,&quot;rounded&quot;:0};" vertex="1" parent="KMCO-tWbzsmPumvapd43-23">
          <mxGeometry x="50" y="80" width="10" height="170" as="geometry" />
        </mxCell>
        <mxCell id="KMCO-tWbzsmPumvapd43-25" value="Index" style="html=1;verticalAlign=bottom;endArrow=block;edgeStyle=elbowEdgeStyle;elbow=vertical;curved=0;rounded=0;" edge="1" parent="1">
          <mxGeometry x="-0.0033" relative="1" as="geometry">
            <mxPoint x="1479.3076923076924" y="169.89999999999998" as="sourcePoint" />
            <Array as="points">
              <mxPoint x="1484" y="179.89999999999998" />
            </Array>
            <mxPoint x="1609" y="180" as="targetPoint" />
            <mxPoint as="offset" />
          </mxGeometry>
        </mxCell>
        <mxCell id="KMCO-tWbzsmPumvapd43-26" value="Ack: ok" style="html=1;verticalAlign=bottom;endArrow=block;edgeStyle=elbowEdgeStyle;elbow=vertical;curved=0;rounded=0;" edge="1" parent="1" target="KMCO-tWbzsmPumvapd43-19">
          <mxGeometry relative="1" as="geometry">
            <mxPoint x="1609" y="210" as="sourcePoint" />
            <Array as="points">
              <mxPoint x="1519" y="210" />
            </Array>
            <mxPoint x="1449" y="210" as="targetPoint" />
          </mxGeometry>
        </mxCell>
        <mxCell id="KMCO-tWbzsmPumvapd43-27" value="Ack: ok" style="html=1;verticalAlign=bottom;endArrow=block;edgeStyle=elbowEdgeStyle;elbow=vertical;curved=0;rounded=0;" edge="1" parent="1" source="KMCO-tWbzsmPumvapd43-20">
          <mxGeometry relative="1" as="geometry">
            <mxPoint x="1469" y="230" as="sourcePoint" />
            <Array as="points">
              <mxPoint x="1378.69" y="230" />
            </Array>
            <mxPoint x="1344.3076923076924" y="230" as="targetPoint" />
          </mxGeometry>
        </mxCell>
        <mxCell id="KMCO-tWbzsmPumvapd43-28" value="Ack: ok" style="html=1;verticalAlign=bottom;endArrow=block;edgeStyle=elbowEdgeStyle;elbow=vertical;curved=0;rounded=0;" edge="1" parent="1" target="KMCO-tWbzsmPumvapd43-14">
          <mxGeometry relative="1" as="geometry">
            <mxPoint x="1333.69" y="260.11" as="sourcePoint" />
            <Array as="points" />
            <mxPoint x="1199" y="260.06711409395973" as="targetPoint" />
          </mxGeometry>
        </mxCell>
        <mxCell id="KMCO-tWbzsmPumvapd43-29" value="Ack: ok" style="html=1;verticalAlign=bottom;endArrow=block;edgeStyle=elbowEdgeStyle;elbow=vertical;curved=0;rounded=0;exitX=0.065;exitY=0.921;exitDx=0;exitDy=0;exitPerimeter=0;" edge="1" parent="1" source="KMCO-tWbzsmPumvapd43-15" target="KMCO-tWbzsmPumvapd43-12">
          <mxGeometry relative="1" as="geometry">
            <mxPoint x="1109" y="270" as="sourcePoint" />
            <Array as="points">
              <mxPoint x="1013.3800000000001" y="270" />
            </Array>
            <mxPoint x="978.9976923076924" y="270" as="targetPoint" />
          </mxGeometry>
        </mxCell>
        <mxCell id="KMCO-tWbzsmPumvapd43-32" value="JobSearch" style="text;html=1;align=center;verticalAlign=middle;whiteSpace=wrap;rounded=0;" vertex="1" parent="1">
          <mxGeometry x="1289" y="330" width="160" height="30" as="geometry" />
        </mxCell>
        <mxCell id="KMCO-tWbzsmPumvapd43-37" value="" style="swimlane;startSize=0;dashed=1;" vertex="1" parent="1">
          <mxGeometry x="10" y="10" width="1050" height="350" as="geometry" />
        </mxCell>
        <mxCell id="aM9ryv3xv72pqoxQDRHE-3" value="Incoming&lt;div&gt;Request&lt;/div&gt;" style="html=1;verticalAlign=bottom;startArrow=oval;endArrow=block;startSize=8;edgeStyle=elbowEdgeStyle;elbow=vertical;curved=0;rounded=0;" parent="KMCO-tWbzsmPumvapd43-37" edge="1">
          <mxGeometry relative="1" as="geometry">
            <mxPoint x="15" y="120" as="sourcePoint" />
            <mxPoint x="75" y="120.14285714285711" as="targetPoint" />
          </mxGeometry>
        </mxCell>
        <mxCell id="aM9ryv3xv72pqoxQDRHE-7" value="dispatch" style="html=1;verticalAlign=bottom;endArrow=block;edgeStyle=elbowEdgeStyle;elbow=vertical;curved=0;rounded=0;" parent="KMCO-tWbzsmPumvapd43-37" edge="1">
          <mxGeometry relative="1" as="geometry">
            <mxPoint x="90" y="130" as="sourcePoint" />
            <Array as="points">
              <mxPoint x="175" y="130" />
            </Array>
            <mxPoint x="280" y="130" as="targetPoint" />
          </mxGeometry>
        </mxCell>
        <mxCell id="aM9ryv3xv72pqoxQDRHE-2" value="" style="html=1;points=[];perimeter=orthogonalPerimeter;outlineConnect=0;targetShapes=umlLifeline;portConstraint=eastwest;newEdgeStyle={&quot;edgeStyle&quot;:&quot;elbowEdgeStyle&quot;,&quot;elbow&quot;:&quot;vertical&quot;,&quot;curved&quot;:0,&quot;rounded&quot;:0};" parent="KMCO-tWbzsmPumvapd43-37" vertex="1">
          <mxGeometry x="80" y="100" width="10" height="190" as="geometry" />
        </mxCell>
        <mxCell id="aM9ryv3xv72pqoxQDRHE-8" value="&lt;font style=&quot;font-size: 10px;&quot;&gt;Respond with JobPostDTO as body&amp;nbsp;&lt;/font&gt;" style="html=1;verticalAlign=bottom;endArrow=open;dashed=1;endSize=8;edgeStyle=elbowEdgeStyle;elbow=vertical;curved=0;rounded=0;" parent="KMCO-tWbzsmPumvapd43-37" source="aM9ryv3xv72pqoxQDRHE-6" edge="1">
          <mxGeometry relative="1" as="geometry">
            <mxPoint x="90" y="270" as="targetPoint" />
            <Array as="points">
              <mxPoint x="185" y="270" />
            </Array>
            <mxPoint x="280" y="270" as="sourcePoint" />
          </mxGeometry>
        </mxCell>
        <mxCell id="KMCO-tWbzsmPumvapd43-11" value="Return JobPostDTO" style="html=1;verticalAlign=bottom;endArrow=block;edgeStyle=elbowEdgeStyle;elbow=vertical;curved=0;rounded=0;" edge="1" parent="KMCO-tWbzsmPumvapd43-37">
          <mxGeometry relative="1" as="geometry">
            <mxPoint x="445" y="250" as="sourcePoint" />
            <Array as="points">
              <mxPoint x="355" y="250" />
            </Array>
            <mxPoint x="285" y="250" as="targetPoint" />
          </mxGeometry>
        </mxCell>
        <mxCell id="KMCO-tWbzsmPumvapd43-10" value="Send to producer&amp;nbsp;" style="html=1;verticalAlign=bottom;endArrow=block;edgeStyle=elbowEdgeStyle;elbow=vertical;curved=0;rounded=0;" edge="1" parent="KMCO-tWbzsmPumvapd43-37">
          <mxGeometry relative="1" as="geometry">
            <mxPoint x="455" y="230.00000000000003" as="sourcePoint" />
            <Array as="points">
              <mxPoint x="545" y="230" />
            </Array>
            <mxPoint x="765" y="230.00000000000003" as="targetPoint" />
          </mxGeometry>
        </mxCell>
        <mxCell id="KMCO-tWbzsmPumvapd43-9" value="Return job post with id" style="html=1;verticalAlign=bottom;endArrow=block;edgeStyle=elbowEdgeStyle;elbow=vertical;curved=0;rounded=0;" edge="1" parent="KMCO-tWbzsmPumvapd43-37">
          <mxGeometry relative="1" as="geometry">
            <mxPoint x="615" y="190" as="sourcePoint" />
            <Array as="points">
              <mxPoint x="520" y="190" />
            </Array>
            <mxPoint x="455" y="190" as="targetPoint" />
          </mxGeometry>
        </mxCell>
        <mxCell id="KMCO-tWbzsmPumvapd43-38" value="Kafka" style="text;html=1;align=center;verticalAlign=middle;whiteSpace=wrap;rounded=0;" vertex="1" parent="KMCO-tWbzsmPumvapd43-37">
          <mxGeometry x="840" y="200" width="60" height="30" as="geometry" />
        </mxCell>
        <mxCell id="KMCO-tWbzsmPumvapd43-46" value="JobBoard" style="text;html=1;align=center;verticalAlign=middle;whiteSpace=wrap;rounded=0;" vertex="1" parent="KMCO-tWbzsmPumvapd43-37">
          <mxGeometry x="400" y="310" width="160" height="30" as="geometry" />
        </mxCell>
        <mxCell id="KMCO-tWbzsmPumvapd43-48" value="" style="swimlane;startSize=0;dashed=1;dashPattern=1 2;" vertex="1" parent="KMCO-tWbzsmPumvapd43-37">
          <mxGeometry x="710" y="20" width="320" height="280" as="geometry" />
        </mxCell>
        <mxCell id="KMCO-tWbzsmPumvapd43-7" value="Send cherry-picked body&amp;nbsp;&lt;div&gt;attributes + userId&lt;/div&gt;" style="html=1;verticalAlign=bottom;endArrow=block;edgeStyle=elbowEdgeStyle;elbow=vertical;curved=0;rounded=0;" edge="1" parent="1" source="aM9ryv3xv72pqoxQDRHE-5" target="KMCO-tWbzsmPumvapd43-2">
          <mxGeometry relative="1" as="geometry">
            <mxPoint x="290" y="150" as="sourcePoint" />
            <Array as="points">
              <mxPoint x="375" y="150" />
            </Array>
            <mxPoint x="450" y="150" as="targetPoint" />
          </mxGeometry>
        </mxCell>
        <mxCell id="KMCO-tWbzsmPumvapd43-47" value="" style="swimlane;startSize=0;" vertex="1" parent="1">
          <mxGeometry x="1100" y="10" width="580" height="360" as="geometry" />
        </mxCell>
      </root>
    </mxGraphModel>
  </diagram>
</mxfile>
